<svg width="16" height="14" viewBox="0 0 16 14" fill="none" xmlns="http://www.w3.org/2000/svg">
<g id="Group">
<path id="Vector" d="M7.99989 9.66561C9.4721 9.66561 10.6656 8.47216 10.6656 6.99995C10.6656 5.52775 9.4721 4.33429 7.99989 4.33429C6.52769 4.33429 5.33423 5.52775 5.33423 6.99995C5.33423 8.47216 6.52769 9.66561 7.99989 9.66561Z" fill="#A3A9B6"/>
<path id="Vector_2" d="M15.5112 5.28004C14.4776 3.59666 12.1265 0.772369 7.99998 0.772369C3.87352 0.772369 1.52239 3.59666 0.488772 5.28004C-0.162924 6.33412 -0.162924 7.666 0.488772 8.72011C1.52239 10.4035 3.87352 13.2278 7.99998 13.2278C12.1265 13.2278 14.4776 10.4035 15.5112 8.72011C16.1629 7.666 16.1629 6.33412 15.5112 5.28004ZM7.99998 10.9986C5.79168 10.9986 4.00147 9.20836 4.00147 7.00006C4.00147 4.79175 5.79168 3.00154 7.99998 3.00154C10.2083 3.00154 11.9985 4.79175 11.9985 7.00006C11.9963 9.20746 10.2074 10.9964 7.99998 10.9986Z" fill="#A3A9B6"/>
</g>
</svg>
