<svg width="16" height="16" viewBox="0 0 16 16" fill="none" xmlns="http://www.w3.org/2000/svg">
<g id="fi-rr-caret-left">
<path id="Vector" d="M8.86015 12.3934L5.14015 8.66673C5.01598 8.54183 4.94629 8.37286 4.94629 8.19673C4.94629 8.02061 5.01598 7.85164 5.14015 7.72673L8.86015 4.00007C8.9534 3.90605 9.07253 3.84193 9.20236 3.81588C9.3322 3.78983 9.46684 3.80304 9.58914 3.85382C9.71143 3.9046 9.81584 3.99064 9.88904 4.10099C9.96224 4.21134 10.0009 4.34098 10.0002 4.4734V11.9201C10.0009 12.0525 9.96224 12.1821 9.88904 12.2925C9.81584 12.4028 9.71143 12.4889 9.58914 12.5396C9.46684 12.5904 9.3322 12.6036 9.20236 12.5776C9.07253 12.5515 8.9534 12.4874 8.86015 12.3934Z" fill="#883DCF"/>
</g>
</svg>
