<svg width="18" height="18" viewBox="0 0 18 18" fill="none" xmlns="http://www.w3.org/2000/svg">
<g id="fi-sr-comment-user" clip-path="url(#clip0_0_158)">
<path id="Vector" d="M9.00017 5.95936C9.63102 5.95936 10.1424 5.44794 10.1424 4.8171C10.1424 4.18625 9.63102 3.67484 9.00017 3.67484C8.36933 3.67484 7.85791 4.18625 7.85791 4.8171C7.85791 5.44794 8.36933 5.95936 9.00017 5.95936Z" fill="#883DCF"/>
<path id="Vector_2" d="M14.9999 0.000640869H2.99986C1.33208 0.0138245 -0.0101121 1.37483 -0.000127757 3.04264V12.1701C-0.0101121 13.838 1.33198 15.1993 2.99986 15.2129H5.1921L8.00309 17.6129C8.55989 18.1217 9.41071 18.1292 9.97634 17.6301L12.8601 15.2121H14.9998C16.6677 15.1985 18.0098 13.8373 17.9998 12.1694V3.04264C18.0099 1.37483 16.6677 0.0138245 14.9999 0.000640869ZM8.99987 2.28214C12.4611 2.37365 12.4604 7.5149 8.99987 7.60715C5.53863 7.51487 5.53937 2.37587 8.99987 2.28214ZM12.1866 12.9066C11.7853 13.0091 11.3769 12.7667 11.2745 12.3653C11.274 12.3635 11.2736 12.3617 11.2731 12.3599C10.8892 11.1042 9.56009 10.3975 8.30441 10.7813C7.54855 11.0124 6.95694 11.604 6.72586 12.3599C6.62106 12.7608 6.21107 13.0009 5.81011 12.8961C5.40915 12.7913 5.16907 12.3813 5.27387 11.9804C5.85381 9.92237 7.99229 8.72414 10.0503 9.30407C11.3474 9.66959 12.3611 10.6833 12.7266 11.9804C12.831 12.385 12.5901 12.7981 12.1866 12.9066Z" fill="#883DCF"/>
</g>
<defs>
<clipPath id="clip0_0_158">
<rect width="18" height="18" fill="white"/>
</clipPath>
</defs>
</svg>
