<svg width="18" height="18" viewBox="0 0 18 18" fill="none" xmlns="http://www.w3.org/2000/svg">
<g id="fi-sr-caret-up">
<path id="Vector" d="M4.81051 11.6895H13.1895C13.3378 11.6895 13.4828 11.6455 13.6061 11.5631C13.7294 11.4807 13.8255 11.3636 13.8823 11.2265C13.939 11.0895 13.9539 10.9387 13.9249 10.7933C13.896 10.6478 13.8246 10.5142 13.7198 10.4093L9.53026 6.2198C9.38961 6.0792 9.19888 6.00021 9.00001 6.00021C8.80114 6.00021 8.6104 6.0792 8.46976 6.2198L4.28026 10.4093C4.1754 10.5142 4.104 10.6478 4.07507 10.7933C4.04615 10.9387 4.061 11.0895 4.11775 11.2265C4.1745 11.3636 4.27061 11.4807 4.39392 11.5631C4.51722 11.6455 4.6622 11.6895 4.81051 11.6895Z" fill="#883DCF"/>
</g>
</svg>
