<svg width="16" height="16" viewBox="0 0 16 16" fill="none" xmlns="http://www.w3.org/2000/svg">
<g id="fi-sr-cross" clip-path="url(#clip0_0_1639)">
<path id="Vector" d="M8.94252 7.99996L15.8045 1.13796C15.926 1.01222 15.9932 0.84382 15.9916 0.669022C15.9901 0.494224 15.92 0.327016 15.7964 0.20341C15.6728 0.079805 15.5056 0.00969234 15.3308 0.0081734C15.156 0.00665445 14.9876 0.0738507 14.8619 0.195289L7.99986 7.05729L1.13786 0.195289C1.01212 0.0738507 0.843721 0.00665445 0.668923 0.0081734C0.494126 0.00969234 0.326917 0.079805 0.203312 0.20341C0.0797065 0.327016 0.00959389 0.494224 0.00807494 0.669022C0.00655599 0.84382 0.0737523 1.01222 0.195191 1.13796L7.05719 7.99996L0.195191 14.862C0.0702103 14.987 0 15.1565 0 15.3333C0 15.5101 0.0702103 15.6796 0.195191 15.8046C0.320209 15.9296 0.489748 15.9998 0.666524 15.9998C0.8433 15.9998 1.01284 15.9296 1.13786 15.8046L7.99986 8.94262L14.8619 15.8046C14.9869 15.9296 15.1564 15.9998 15.3332 15.9998C15.51 15.9998 15.6795 15.9296 15.8045 15.8046C15.9295 15.6796 15.9997 15.5101 15.9997 15.3333C15.9997 15.1565 15.9295 14.987 15.8045 14.862L8.94252 7.99996Z" fill="#858D9D"/>
</g>
<defs>
<clipPath id="clip0_0_1639">
<rect width="16" height="16" fill="white"/>
</clipPath>
</defs>
</svg>
